<svg xmlns="http://www.w3.org/2000/svg" width="103" height="102.985" viewBox="0 0 103 102.985"><path d="M99.4,44.611,87.372,36.465l2.756-14.28a8.132,8.132,0,0,0-9.514-9.554l-14.26,2.756L58.228,3.339c-3.037-4.485-10.439-4.485-13.476,0L36.626,15.387l-14.24-2.756a8.155,8.155,0,0,0-9.534,9.554l2.756,14.28L3.58,44.611a8.149,8.149,0,0,0,0,13.5l12.028,8.146-2.756,14.28a8.132,8.132,0,0,0,9.534,9.534l14.24-2.756L44.752,99.36a8.118,8.118,0,0,0,13.476.02l8.126-12.048,14.26,2.756a8.026,8.026,0,0,0,7.3-2.233,8.167,8.167,0,0,0,2.233-7.3l-2.756-14.28L99.42,58.127a8.156,8.156,0,0,0-.02-13.516ZM76.692,61.828l3.54,18.343-18.3-3.54L51.49,92.1,41.051,76.612l-18.283,3.54,3.54-18.343L10.861,51.349,26.308,40.89l-3.54-18.343,18.3,3.54L51.49,10.64,61.929,26.107l18.3-3.54L76.692,40.89,92.139,51.349,76.692,61.828ZM51.49,30.552A20.918,20.918,0,1,0,72.408,51.47,20.953,20.953,0,0,0,51.49,30.552Zm0,32.181A11.263,11.263,0,1,1,62.753,51.47,11.271,11.271,0,0,1,51.49,62.733Z" transform="translate(0 0.025)" fill="#fff"/></svg>