<svg xmlns="http://www.w3.org/2000/svg" xmlns:xlink="http://www.w3.org/1999/xlink" width="102.998" height="102.998" viewBox="0 0 102.998 102.998"><defs><linearGradient id="a" x1="0.83" y1="0.188" x2="0.158" y2="0.962" gradientUnits="objectBoundingBox"><stop offset="0" stop-color="#96506f"/><stop offset="0.472" stop-color="#633f7d"/><stop offset="1" stop-color="#273a71"/></linearGradient></defs><path d="M51.5,8A51.5,51.5,0,1,0,103,59.5,51.49,51.49,0,0,0,51.5,8Zm0,93.03A41.531,41.531,0,1,1,93.03,59.5,41.573,41.573,0,0,1,51.5,101.03ZM73.427,69.591c-5.378,1.724-13.373,2.72-21.929,2.72s-16.529-1-21.929-2.72a2.852,2.852,0,0,0-3.676,3.177c1.64,9.8,14.806,16.613,25.6,16.613s23.943-6.832,25.6-16.613a2.86,2.86,0,0,0-3.676-3.177ZM26.1,57.651a1.557,1.557,0,0,0,2.284,1.64l6.5-3.385,6.5,3.385a1.557,1.557,0,0,0,2.284-1.64L42.424,50.4,47.7,45.3a1.623,1.623,0,0,0-.893-2.741l-7.247-1.038L36.34,34.954a1.6,1.6,0,0,0-2.886,0l-3.219,6.562-7.247,1.038a1.613,1.613,0,0,0-.893,2.741L27.369,50.4,26.1,57.651Zm53.928-15.1-7.247-1.038-3.219-6.562a1.6,1.6,0,0,0-2.886,0L63.46,41.516l-7.247,1.038A1.613,1.613,0,0,0,55.32,45.3L60.594,50.4l-1.246,7.247a1.557,1.557,0,0,0,2.284,1.64l6.5-3.385,6.5,3.385a1.557,1.557,0,0,0,2.284-1.64L75.67,50.4,80.945,45.3A1.627,1.627,0,0,0,80.031,42.554Z" transform="translate(0 -8)" fill="url(#a)"/></svg>