<svg xmlns="http://www.w3.org/2000/svg" xmlns:xlink="http://www.w3.org/1999/xlink" width="127.628" height="167.292" viewBox="0 0 127.628 167.292"><defs><linearGradient id="a" x1="0.22" y1="0.832" x2="1.039" y2="0.255" gradientUnits="objectBoundingBox"><stop offset="0" stop-color="#273a71"/><stop offset="0.489" stop-color="#633f7d"/><stop offset="1" stop-color="#96506f"/></linearGradient></defs><g transform="translate(-3832.499 -2599.881)"><path d="M118.224,33.007,90.1,28.907,77.525,3.417a6.166,6.166,0,0,0-11.051,0L53.9,28.907l-28.128,4.1a6.164,6.164,0,0,0-3.408,10.512l20.35,19.83L37.9,91.361a6.157,6.157,0,0,0,8.933,6.488L72,84.623,97.162,97.849a6.162,6.162,0,0,0,8.933-6.488l-4.813-28.012,20.35-19.83a6.164,6.164,0,0,0-3.408-10.512ZM91.367,60.115,95.93,86.76,72,74.188,48.069,86.76l4.563-26.645L33.264,41.247l26.761-3.889L72,13.1,83.974,37.358l26.761,3.889L91.367,60.115Z" transform="translate(3811.999 2668.601)" fill="url(#a)"/><path d="M73.875,18.022l-15.363-2.24L51.646,1.86a3.368,3.368,0,0,0-6.036,0L38.744,15.783l-15.363,2.24a3.367,3.367,0,0,0-1.861,5.741L32.634,34.594l-2.629,15.3a3.363,3.363,0,0,0,4.879,3.544l13.743-7.224,13.743,7.224a3.365,3.365,0,0,0,4.879-3.544l-2.629-15.3L75.736,23.764a3.367,3.367,0,0,0-1.861-5.741ZM59.206,32.828,61.7,47.381l-13.07-6.866-13.07,6.866L38.05,32.828l-10.578-10.3L42.087,20.4,48.628,7.15,55.168,20.4l14.616,2.124-10.578,10.3Z" transform="translate(3883.371 2629.971)" fill="url(#a)"/><path d="M50.238,10.036,41.679,8.788,37.853,1.031a1.876,1.876,0,0,0-3.363,0L30.664,8.788,22.1,10.036a1.876,1.876,0,0,0-1.037,3.2l6.193,6.034L25.8,27.793a1.874,1.874,0,0,0,2.718,1.974l7.657-4.025,7.657,4.025a1.875,1.875,0,0,0,2.718-1.974l-1.465-8.524,6.193-6.034a1.876,1.876,0,0,0-1.037-3.2Zm-8.173,8.249,1.389,8.108-7.282-3.826-7.282,3.826,1.388-8.108-5.894-5.741,8.144-1.183,3.644-7.382,3.644,7.382,8.144,1.183-5.894,5.741Z" transform="translate(3863.827 2599.893)" fill="url(#a)"/></g></svg>