<svg xmlns="http://www.w3.org/2000/svg" xmlns:xlink="http://www.w3.org/1999/xlink" width="103.445" height="103.445" viewBox="0 0 103.445 103.445"><defs><linearGradient id="a" y1="1" x2="0.958" y2="0.074" gradientUnits="objectBoundingBox"><stop offset="0" stop-color="#273a71"/><stop offset="0.489" stop-color="#633f7d"/><stop offset="1" stop-color="#96506f"/></linearGradient></defs><path d="M93.747,0H29.094a9.7,9.7,0,0,0-9.7,9.7v9.7H9.7a9.7,9.7,0,0,0-9.7,9.7V93.747a9.7,9.7,0,0,0,9.7,9.7H74.351a9.7,9.7,0,0,0,9.7-9.7v-9.7h9.7a9.7,9.7,0,0,0,9.7-9.7V9.7A9.7,9.7,0,0,0,93.747,0ZM73.139,93.747H10.91A1.212,1.212,0,0,1,9.7,92.535V30.306a1.212,1.212,0,0,1,1.212-1.212H19.4V74.351a9.7,9.7,0,0,0,9.7,9.7H74.351v8.486A1.212,1.212,0,0,1,73.139,93.747Zm19.4-19.4H30.306a1.212,1.212,0,0,1-1.212-1.212V10.91A1.212,1.212,0,0,1,30.306,9.7H92.535a1.212,1.212,0,0,1,1.212,1.212V73.139A1.212,1.212,0,0,1,92.535,74.351Z" fill="url(#a)"/></svg>