<svg xmlns="http://www.w3.org/2000/svg" width="168" height="168" viewBox="0 0 168 168"><g transform="translate(-876 342)"><g transform="translate(876 -342)" fill="none" stroke="#fff" stroke-width="15"><circle cx="84" cy="84" r="84" stroke="none"/><circle cx="84" cy="84" r="76.5" fill="none"/></g><g transform="translate(876 -342)" fill="none"><path d="M84,84a83.961,83.961,0,0,1,42-72.762,84.028,84.028,0,0,1,0,145.525A83.962,83.962,0,0,1,84,84Z" stroke="none"/><path d="M 126 29.25352478027344 C 109.1578826904297 42.2193603515625 98.99969482421875 62.47412872314453 98.99969482421875 83.99969482421875 C 98.99969482421875 105.5257034301758 109.1578521728516 125.78076171875 125.9999923706055 138.7466735839844 C 142.8421325683594 125.7807312011719 153.0003051757813 105.5256729125977 153.0003051757813 83.99969482421875 C 153.0003051757813 62.47412872314453 142.8421478271484 42.21938323974609 126 29.25352478027344 M 126 11.23776245117188 C 151.1094970703125 25.76136779785156 168.0003051757813 52.90692901611328 168.0003051757813 83.99969482421875 C 168.0003051757813 115.0930633544922 151.1094970703125 142.2388305664063 126 156.7624664306641 C 100.8904724121094 142.2388305664063 83.99969482421875 115.0930633544922 83.99969482421875 83.99969482421875 C 83.99969482421875 52.90692901611328 100.8904724121094 25.76136779785156 126 11.23776245117188 Z" stroke="none" fill="#fff"/></g></g></svg>